<svg xmlns="http://www.w3.org/2000/svg" id="Capa_2" data-name="Capa 2" viewBox="0 0 199.25 199"><defs><style>      .cls-1 {        fill: #b7a662;      }    </style></defs><g id="Capa_1-2" data-name="Capa 1"><g><path class="cls-1" d="M193.55,0h-122.66c-3.15,0-5.7,2.55-5.7,5.69s2.55,5.69,5.7,5.69h116.96v116.81c0,3.14,2.55,5.69,5.7,5.69s5.7-2.55,5.7-5.69V5.69c0-3.15-2.55-5.69-5.7-5.69Z"></path><path class="cls-1" d="M197.26,161.83l-31.84-27.15c-2.4-2.03-5.98-1.75-8.05.64-2.03,2.39-1.76,5.97.64,8.04l20.09,17.11H38.58V21.14l17.14,20.06c1.11,1.31,2.71,1.99,4.34,1.99,1.31,0,2.63-.44,3.7-1.35,2.39-2.03,2.67-5.66.64-8.04L37.22,1.99c-1.08-1.27-2.67-1.99-4.34-1.99s-3.27.72-4.34,1.99L1.36,33.79c-2.04,2.39-1.76,5.97.64,8.04,2.39,2.03,5.98,1.75,8.05-.64l17.14-20.06v145.03c0,3.15,2.55,5.69,5.7,5.69h145.21l-20.09,17.11c-2.39,2.03-2.67,5.65-.64,8.04,1.11,1.31,2.71,1.99,4.34,1.99,1.31,0,2.63-.44,3.71-1.35l31.84-27.14c1.28-1.08,1.99-2.67,1.99-4.34s-.71-3.22-1.99-4.34Z"></path><path class="cls-1" d="M77.67,72.12c-2.99,0-4.51,1.55-4.51,4.66v27.98c0,3.15,1.52,4.7,4.58,4.7s4.66-1.55,4.66-4.7v-15.84c0-2.99.68-5.33,2.07-7.05s3.27-2.55,5.7-2.55c2.11,0,3.63.64,4.54,1.91.92,1.27,1.35,3.3,1.35,6.05v17.47c0,3.15,1.56,4.7,4.67,4.7s4.58-1.55,4.58-4.7v-15.84c0-2.99.68-5.33,2.07-7.05,1.4-1.71,3.27-2.55,5.7-2.55,2.16,0,3.71.64,4.63,1.91.92,1.27,1.35,3.3,1.35,6.05v17.47c0,3.15,1.52,4.7,4.58,4.7s4.66-1.55,4.66-4.7v-17.83c0-9.87-4.06-14.8-12.15-14.8-2.71,0-5.1.64-7.21,1.87-2.11,1.23-3.74,2.98-4.86,5.17-1.67-4.69-5.22-7.08-10.6-7.08-2.51,0-4.7.56-6.66,1.67-1.91,1.11-3.43,2.63-4.5,4.62v-1.64c-.16-3.06-1.68-4.61-4.66-4.61Z"></path><path class="cls-1" d="M151.63,73.91c.76-1.47,1.16-3.03,1.16-4.62,0-2.43-.8-4.34-2.39-5.65-1.55-1.31-3.74-1.95-6.54-1.95-1.31,0-2.67.2-3.94.56-1.32.35-2.51.91-3.59,1.63-.68.48-1.11,1.07-1.19,1.75-.12.64,0,1.28.32,1.87.32.6.8,1.04,1.43,1.23.2.08.4.08.6.08.48,0,.99-.16,1.47-.52.76-.48,1.47-.83,2.19-1.04.72-.2,1.43-.32,2.15-.32,3.15,0,3.55,1.52,3.55,2.79,0,.8-.2,1.64-.6,2.43-.44.84-1.16,1.83-2.19,2.87l-7.01,7.44c-.44.47-.76.91-1.04,1.35-.28.48-.4.99-.4,1.52,0,.88.24,1.55.72,2.03.48.47,1.2.71,2.15.71h12.83c1.71,0,2.67-.95,2.67-2.63s-1-2.59-2.67-2.59h-7.33l4.19-4.38c1.55-1.59,2.71-3.14,3.46-4.57Z"></path></g></g></svg>