<svg xmlns="http://www.w3.org/2000/svg" id="Capa_2" data-name="Capa 2" viewBox="0 0 69.9 66.09"><defs><style>      .cls-1 {        fill: #5c4c34;      }    </style></defs><g id="Capa_1-2" data-name="Capa 1"><path class="cls-1" d="M58.92,37.93c0,1.24-.8,2.34-1.97,2.73-5.63,1.87-13.41,3.02-22,3.02s-16.37-1.15-22-3.02c-1.18-.39-1.97-1.5-1.97-2.73V13.96c0-1.45,1.18-2.63,2.64-2.63h42.67c1.46,0,2.64,1.17,2.64,2.63v23.97ZM58.92,49.48c0,2.93-2.78,5.3-6.2,5.3h-7.74c-1.81,0-2.39-2.08-.77-2.78l12.31-5.28c1.1-.47,2.4.21,2.4,1.27v1.49ZM24.91,54.78h-7.74c-3.42,0-6.2-2.38-6.2-5.3v-1.49c0-1.06,1.3-1.74,2.4-1.27l12.31,5.28c1.62.69,1.04,2.78-.77,2.78ZM22.26,4.1c0-.43.35-.78.78-.78h23.82c.43,0,.78.35.78.78v3.78c0,.43-.35.78-.78.78h-23.82c-.43,0-.78-.35-.78-.78v-3.78ZM68.66,16.68h-.74v-.66c0-1.24-1.01-2.25-2.25-2.25h-2.78v-6.42c0-.85-.19-1.65-.51-2.37-.76-1.69-2.37-2.84-4.19-3.2-.34-.07-.68-.13-1.01-.19C46.44-.38,34.95.04,34.95.04c0,0-11.49-.42-22.23,1.55-.34.06-.68.13-1.01.19-1.82.36-3.43,1.51-4.19,3.2-.32.72-.51,1.53-.51,2.37v6.42h-2.78c-1.24,0-2.25,1.01-2.25,2.25v.66h-.74c-.68,0-1.23.55-1.23,1.23v9.64c0,.68.55,1.23,1.23,1.23h3.17c.68,0,1.23-.55,1.23-1.23v-9.64c0-.68-.55-1.23-1.23-1.23h-.74v-.66c0-.31.25-.56.56-.56h2.78v37.35c0,3.02,1.8,5.62,4.38,6.79v5c0,.81.66,1.48,1.48,1.48h7.69c.82,0,1.48-.66,1.48-1.48v-4.34h25.83v4.34c0,.81.66,1.48,1.48,1.48h7.69c.82,0,1.48-.66,1.48-1.48v-5c2.58-1.17,4.38-3.77,4.38-6.79V15.47h2.78c.31,0,.56.25.56.56v.66h-.74c-.68,0-1.23.55-1.23,1.23v9.64c0,.68.55,1.23,1.23,1.23h3.17c.68,0,1.23-.55,1.23-1.23v-9.64c0-.68-.55-1.23-1.23-1.23"></path></g></svg>