<svg xmlns="http://www.w3.org/2000/svg" id="Capa_2" data-name="Capa 2" viewBox="0 0 82.86 75.43"><defs><style>      .cls-1 {        fill: #b7a662;      }    </style></defs><g id="Capa_1-2" data-name="Capa 1"><path class="cls-1" d="M72.17,18.28c-1.89,4.83-7.18,7.3-12.08,5.83-.2-1.88-.69-3.73-1.47-5.51-1.17-2.68-2.93-4.99-5.1-6.82.07-.24.11-.48.2-.71,1.53-3.9,5.28-6.3,9.23-6.3,1.2,0,2.42.22,3.59.68,5.09,1.99,7.61,7.75,5.62,12.84ZM54.47,31.22c-2.81,7.19-10.96,10.75-18.14,7.94-7.19-2.81-10.75-10.95-7.94-18.14,2.16-5.52,7.45-8.9,13.05-8.9,1.69,0,3.41.31,5.08.96,3.48,1.36,6.23,4,7.73,7.43,1.5,3.43,1.57,7.23.21,10.72ZM23.95,19.29c-.62,1.58-.98,3.2-1.16,4.82-2.06.63-4.33.64-6.48-.2-2.46-.96-4.41-2.83-5.47-5.25-1.06-2.42-1.11-5.12-.15-7.58,1.53-3.9,5.27-6.3,9.23-6.3,1.2,0,2.42.22,3.59.68,2.92,1.14,4.95,3.54,5.81,6.33-2.32,1.95-4.2,4.49-5.39,7.51ZM73.02,25.31c1.52-1.44,2.77-3.21,3.58-5.29,2.95-7.54-.79-16.07-8.32-19.01-7.47-2.92-15.9.73-18.92,8.13-.36-.17-.72-.34-1.1-.49-4.98-1.95-10.28-1.6-14.78.5-1.47-3.6-4.33-6.61-8.22-8.14C17.73-1.94,9.2,1.8,6.26,9.33c-1.43,3.65-1.35,7.64.22,11.23.8,1.82,1.94,3.43,3.34,4.76-5.65,1.65-9.82,6.82-9.82,12.99v11.56c0,1.32,1.07,2.38,2.38,2.38s2.38-1.07,2.38-2.38v-11.56c0-4.87,3.96-8.82,8.82-8.82h9.41c.8,4.34,3.09,8.33,6.57,11.17-7.92,1.6-13.9,8.6-13.9,16.99v15.41c0,1.32,1.07,2.38,2.38,2.38s2.38-1.07,2.38-2.38v-15.41c0-6.93,5.64-12.56,12.56-12.56h16.88c6.92,0,12.56,5.63,12.56,12.56v15.41c0,1.32,1.06,2.38,2.38,2.38s2.38-1.07,2.38-2.38v-15.41c0-8.4-6.01-15.42-13.96-17,2.44-1.98,4.44-4.56,5.67-7.68.44-1.14.77-2.3.99-3.48h9.38c4.86,0,8.82,3.96,8.82,8.82v11.56c0,1.32,1.07,2.38,2.38,2.38s2.38-1.07,2.38-2.38v-11.56c0-6.19-4.18-11.36-9.84-13"></path></g></svg>