<svg xmlns="http://www.w3.org/2000/svg" data-name="Capa 2" viewBox="0 0 108.58 96.17"><path d="M99.14 53.47c-.04-.42-.1-.83-.18-1.24-.08-.41-.17-.82-.28-1.22s-.23-.8-.38-1.2c-.14-.39-.3-.78-.47-1.16-.17-.38-.36-.75-.56-1.12s-.42-.72-.65-1.07a15.329 15.329 0 0 0-1.54-1.96c-.28-.31-.58-.6-.89-.88-.31-.28-.63-.55-.96-.81-.33-.26-.67-.5-1.02-.73-.35-.23-.71-.44-1.07-.64-.37-.2-.74-.38-1.12-.55-.38-.17-.77-.32-1.16-.46-.39-.14-.79-.26-1.2-.37-.4-.11-.81-.2-1.22-.27.16-1.34.19-2.69.1-4.04l-1.16-16.81c-.02-.32-.05-.63-.09-.95-.04-.32-.08-.63-.13-.94-.05-.31-.11-.63-.18-.94s-.14-.62-.22-.93-.17-.61-.26-.92c-.1-.3-.2-.6-.31-.9-.11-.3-.23-.6-.35-.89-.12-.29-.25-.58-.39-.87-.14-.29-.28-.57-.43-.85s-.31-.56-.47-.83c-.16-.27-.33-.54-.51-.81s-.36-.53-.54-.78c-.19-.26-.38-.51-.58-.76-.2-.25-.4-.49-.62-.73-.21-.24-.43-.47-.65-.7-.22-.23-.45-.45-.68-.67-.23-.22-.47-.43-.71-.63-.24-.21-.49-.41-.74-.6s-.51-.38-.77-.57c-.26-.18-.53-.36-.79-.53-.27-.17-.54-.33-.82-.49-.28-.16-.56-.31-.84-.45s-.57-.28-.86-.41a23.2 23.2 0 0 0-1.77-.7c-.3-.1-.6-.2-.91-.29-.31-.09-.61-.17-.92-.24-.31-.07-.62-.14-.93-.2-.31-.06-.63-.11-.94-.16-.31-.04-.63-.08-.95-.11s-.63-.05-.95-.07-.64-.02-.95-.02-.64 0-.95.02c-.32.01-.63.04-.95.07-.32.03-.63.07-.95.11-.31.04-.63.1-.94.16s-.62.13-.93.2c-.31.07-.62.16-.92.24s-.61.18-.91.29-.6.21-.9.33c-.3.12-.59.24-.88.37s-.58.27-.86.41-.56.29-.84.45c-.28.16-.55.32-.82.49-.27.17-.53.35-.79.53-.26.18-.52.37-.77.56s-.5.39-.74.6c-.24.21-.48.42-.71.63-.23.22-.46.44-.68.67s-.44.46-.65.7c-.21.24-.42.48-.62.73s-.39.5-.58.76-.37.52-.55.78-.35.53-.51.81c-.16.27-.32.55-.47.83-.15.28-.29.56-.43.85s-.27.58-.39.87c-.12.29-.24.59-.35.89-.11.3-.21.6-.31.9-.1.3-.18.61-.26.92-.08.31-.15.62-.22.93s-.13.62-.18.94c-.05.31-.1.63-.13.94s-.07.63-.09.95l-.21 3.04a11.499 11.499 0 0 0-4.68-1.53c-.1-.29-.2-.57-.32-.85a12.297 12.297 0 0 0-.84-1.61c-.16-.26-.33-.51-.52-.75-.18-.24-.37-.48-.57-.71-.2-.23-.41-.45-.63-.66s-.44-.41-.68-.61c-.23-.19-.48-.38-.72-.55-.25-.17-.5-.34-.77-.49-.26-.15-.53-.3-.8-.43s-.55-.25-.83-.37c-.28-.11-.57-.21-.86-.3-.29-.09-.58-.16-.88-.23-.3-.06-.6-.12-.9-.16s-.6-.07-.91-.09c-.3-.02-.61-.02-.91-.01-.3 0-.61.03-.91.06-.3.03-.6.07-.9.13-.3.06-.59.12-.89.2-.29.08-.58.17-.87.27-.29.1-.57.21-.84.34-.28.12-.55.26-.81.41s-.53.3-.78.47c-.25.17-.5.34-.74.53s-.47.38-.7.59c-.22.2-.44.42-.65.64s-.41.45-.59.69-.37.48-.54.73c-.17.25-.33.51-.48.77s-.29.53-.42.81-.24.56-.35.84-.2.57-.28.87c-.11.12-.2.26-.27.41s-.12.31-.14.47c-.02.16-.03.33 0 .49.02.16.07.32.14.47.07.15.16.29.26.41.11.13.23.23.37.32.14.09.29.16.45.2s.32.07.49.07h.17c.1 0 .2 0 .3-.02.1-.02.19-.04.29-.07.09-.03.18-.07.27-.12s.17-.1.25-.16c.08-.06.15-.13.22-.21.07-.07.13-.15.18-.24.05-.08.1-.17.13-.27.04-.09.07-.19.09-.29.05-.22.1-.45.17-.66.07-.22.14-.44.22-.65.08-.21.18-.42.28-.63a8.06 8.06 0 0 1 .71-1.17c.13-.18.28-.36.43-.54.15-.17.31-.34.47-.5s.33-.31.51-.45.36-.28.55-.41c.19-.13.38-.25.58-.36.2-.11.4-.22.61-.31.21-.09.42-.18.64-.26s.43-.14.65-.2a7.914 7.914 0 0 1 2.03-.27c.22 0 .46 0 .68.03s.45.05.68.09c.23.04.45.09.67.15.22.06.44.13.65.2.22.08.43.16.64.26.21.1.41.2.61.31.2.11.39.23.58.36.19.13.37.27.55.41.18.14.35.3.51.45s.32.32.47.5c.15.17.29.35.43.54.14.18.26.37.38.57s.23.4.33.6c.1.21.19.41.28.63.08.21.16.43.22.65s.12.44.17.66c.02.1.05.19.09.29s.08.18.13.27.11.16.18.24c.07.07.14.14.22.21s.16.12.25.16c.09.05.18.09.27.12.09.03.19.06.29.07.1.02.2.02.3.02h.17c.26 0 .53.01.79.04s.52.07.78.12c.26.05.51.12.76.19.25.08.5.17.74.27s.48.21.71.34c.23.12.46.26.67.41.22.15.43.3.63.47.2.17.4.34.58.53.19.19.36.38.53.58a7.363 7.363 0 0 1 .87 1.31c.12.24.24.47.34.71.1.24.19.49.27.74.08.25.14.51.19.76s.09.52.12.78.04.52.04.79c0 .64-.07 1.28-.23 1.9-.15.63-.38 1.22-.67 1.79-.03.06-.06.12-.08.18-.02.06-.04.13-.06.19-.02.07-.03.13-.04.2 0 .07-.01.13-.01.2s0 .13.01.2l.03.2c.02.07.03.13.06.19.02.06.05.13.08.19s.06.12.1.18c.04.06.08.11.12.16.04.05.09.1.14.15.05.05.1.09.16.13.05.04.11.08.17.11l.18.09c.06.03.13.05.19.07s.13.03.2.04c.21.04.42.08.63.13s.42.11.62.18c.2.07.41.15.61.23.2.09.39.18.58.28.19.1.38.21.56.33.18.12.36.24.53.37.17.13.34.27.5.41.16.14.32.29.47.45.15.16.29.32.43.49s.27.34.39.52.24.36.34.55.21.38.3.58.17.4.25.6.14.41.2.62c.06.21.11.42.15.63s.07.43.1.64.04.43.05.65v.65c0 .22-.03.43-.06.65-.03.21-.06.43-.11.64s-.1.42-.16.63c-.06.21-.13.41-.21.61s-.16.4-.26.59c-.09.19-.2.39-.31.57-.11.19-.23.37-.35.55-.12.18-.26.35-.39.51-.14.17-.28.33-.43.48-.15.15-.31.3-.47.44-.16.14-.33.28-.51.41-.17.13-.35.25-.54.36-.18.11-.37.22-.56.32s-.39.19-.59.27c-.11.04-.21.1-.3.16a1.783 1.783 0 0 0-.63.78c-.04.11-.07.21-.1.33-.02.11-.03.23-.03.34 0 .11.01.23.04.34.02.11.06.22.1.32.08.19.16.38.22.58.07.19.13.39.18.59.05.2.1.4.13.6.04.2.07.41.09.61.02.21.03.41.04.62s0 .41 0 .62c-.01.21-.03.41-.06.61s-.06.41-.1.61-.09.4-.15.6c-.06.2-.12.39-.19.59-.07.19-.15.38-.24.57-.09.19-.18.37-.28.55-.1.18-.21.35-.32.53s-.24.34-.36.5c-.13.16-.26.32-.4.47-.14.15-.28.3-.43.44-.15.14-.31.27-.47.4s-.33.25-.5.37c-.17.12-.34.22-.52.33s-.36.2-.55.29c-.19.09-.38.17-.57.24-.19.07-.39.14-.58.2s-.4.11-.6.15-.4.08-.61.11c-.2.03-.41.05-.61.06-.21.01-.41.02-.62.01-.21 0-.41-.02-.62-.04-.2-.02-.41-.05-.61-.08-.2-.04-.4-.08-.6-.13s-.4-.11-.59-.18-.39-.14-.58-.22c-.19-.08-.37-.17-.56-.26-.15-.08-.31-.13-.47-.16a1.68 1.68 0 0 0-.5-.02c-.17.02-.33.06-.48.12s-.3.15-.43.26c-.73.6-1.54 1.06-2.43 1.37V56.62l7.29-7.38c.08-.08.15-.17.21-.26s.12-.19.16-.3c.04-.1.07-.21.1-.32a1.87 1.87 0 0 0 0-.68c-.02-.11-.06-.22-.1-.32-.04-.1-.1-.2-.16-.3a1.783 1.783 0 0 0-.78-.63c-.1-.04-.21-.07-.32-.1a1.87 1.87 0 0 0-.34-.03c-.11 0-.22.01-.33.04-.11.02-.22.06-.32.1-.1.04-.2.1-.3.16s-.18.14-.26.22l-4.85 4.91v-9.71c0-.11-.01-.22-.03-.34s-.05-.22-.1-.32-.1-.2-.16-.3c-.06-.09-.13-.18-.21-.26-.08-.08-.17-.15-.26-.21s-.19-.12-.3-.16c-.1-.04-.21-.08-.32-.1a1.841 1.841 0 0 0-.67 0c-.11.02-.22.05-.32.1-.1.04-.2.1-.3.16-.09.06-.18.13-.26.21s-.15.17-.21.26-.12.19-.16.3c-.04.1-.08.21-.1.32s-.03.22-.03.34v18.07l-4.99-4.37c-.08-.07-.18-.14-.27-.2-.1-.06-.2-.1-.31-.14-.11-.04-.22-.06-.33-.08-.11-.01-.22-.02-.34-.01-.11 0-.22.03-.33.06a1.748 1.748 0 0 0-.85.53c-.08.08-.14.18-.2.27-.06.1-.1.2-.14.31-.04.11-.06.22-.08.33s-.02.22-.01.34c0 .11.03.22.06.33a1.748 1.748 0 0 0 .53.86l7.25 6.35v3.29c-.71-.07-1.39-.23-2.06-.48s-1.28-.58-1.86-1c-.14-.1-.28-.17-.44-.23-.16-.06-.32-.09-.49-.09s-.33 0-.49.05c-.16.04-.31.1-.46.19-.18.1-.36.2-.54.29-.18.09-.37.17-.56.25-.19.08-.38.14-.58.21-.2.06-.39.11-.59.16-.2.05-.4.08-.6.11-.2.03-.41.05-.61.07-.2.01-.41.02-.61.02s-.41 0-.61-.03-.41-.04-.61-.07-.4-.07-.6-.12-.4-.1-.59-.17c-.19-.06-.39-.13-.58-.21-.19-.08-.38-.16-.56-.25-.18-.09-.36-.19-.54-.3-.18-.11-.35-.22-.51-.34-.17-.12-.33-.24-.49-.38-.16-.13-.31-.27-.46-.41-.15-.14-.29-.29-.42-.45-.14-.15-.27-.31-.39-.48-.12-.16-.24-.33-.35-.51s-.21-.35-.31-.53c-.1-.18-.19-.37-.27-.55-.08-.19-.16-.38-.23-.57-.07-.19-.13-.39-.18-.59-.05-.2-.1-.4-.14-.6s-.07-.4-.09-.61-.04-.41-.04-.61v-.62c0-.2.03-.41.05-.61.02-.2.06-.41.1-.61.04-.2.09-.4.14-.6s.12-.39.19-.59l.06-.18c.01-.06.03-.13.03-.19s.01-.13.01-.19v-.19c0-.06-.02-.13-.03-.19s-.03-.12-.05-.19c-.02-.06-.04-.12-.07-.18-.03-.06-.06-.11-.09-.17-.03-.06-.07-.11-.11-.16-.04-.05-.08-.1-.13-.15-.04-.05-.09-.09-.14-.13-.05-.04-.1-.08-.16-.11a.95.95 0 0 0-.17-.1c-.06-.03-.12-.05-.18-.08l-.18-.06c-.06-.02-.13-.03-.19-.04-.24-.03-.49-.08-.73-.13s-.48-.12-.71-.2c-.24-.08-.47-.16-.69-.26-.23-.1-.45-.21-.67-.32-.22-.12-.43-.25-.63-.38-.21-.14-.4-.29-.6-.44-.19-.16-.38-.32-.55-.49-.18-.17-.34-.35-.5-.54s-.31-.38-.45-.59c-.14-.2-.27-.41-.4-.63-.12-.21-.23-.44-.34-.66-.1-.23-.19-.46-.27-.69-.08-.23-.15-.47-.21-.71s-.11-.48-.14-.73c-.04-.24-.06-.49-.07-.74-.01-.25-.02-.49 0-.74s.03-.49.06-.74.08-.49.13-.73.12-.48.2-.72c.08-.24.16-.47.26-.69.1-.23.21-.45.32-.67a8.376 8.376 0 0 1 .82-1.23c.16-.2.32-.38.49-.55.17-.18.35-.34.54-.5.19-.16.38-.31.59-.45.2-.14.41-.27.63-.4s.44-.23.66-.34.45-.19.69-.27c.23-.08.47-.15.71-.21s.48-.11.73-.14.49-.06.74-.07c.07 0 .15-.01.22-.03s.14-.03.21-.05c.07-.02.14-.05.2-.08.07-.03.13-.07.19-.11.06-.04.12-.08.18-.13s.11-.1.16-.15c.05-.05.1-.11.14-.17s.08-.12.12-.19c.03-.06.07-.13.09-.2.03-.07.05-.14.07-.21.02-.07.03-.14.04-.22 0-.07.01-.15.01-.22s0-.15-.02-.22c-.01-.07-.03-.14-.04-.21-.02-.07-.04-.14-.07-.21s-.06-.13-.1-.2c-.12-.2-.22-.41-.32-.62a7.448 7.448 0 0 1-.48-1.31 8.28 8.28 0 0 1-.24-1.37 8.02 8.02 0 0 1-.03-.7c0-.23 0-.47.03-.7s.05-.46.09-.69c.04-.23.09-.46.15-.68.06-.23.13-.45.21-.67.08-.22.17-.43.27-.65.1-.21.2-.42.32-.62s.24-.4.37-.59c.13-.19.27-.38.42-.56s.31-.35.47-.52.33-.32.51-.47c.09-.07.16-.15.23-.24a1.665 1.665 0 0 0 .3-.59c.03-.11.05-.22.06-.33v-.34c-.01-.11-.04-.22-.07-.33s-.08-.21-.13-.31-.12-.19-.19-.28c-.07-.09-.15-.16-.24-.23a1.665 1.665 0 0 0-.59-.3c-.11-.03-.22-.05-.33-.06s-.22 0-.34 0c-.11.01-.22.04-.33.07s-.21.08-.31.13-.19.12-.28.19a11.005 11.005 0 0 0-1.2 1.19c-.19.21-.36.43-.53.66s-.33.46-.48.69-.3.48-.43.73-.26.5-.38.76-.22.52-.32.78-.18.53-.26.81c-.08.27-.14.55-.2.82a12.519 12.519 0 0 0-.22 1.68c-.02.28-.02.56-.01.85 0 .28.02.56.05.85.03.28.06.56.11.84s.1.55.17.83.14.55.23.81c-.3.08-.59.17-.88.28-.29.1-.57.22-.85.35a12.658 12.658 0 0 0-1.61.9c-.26.17-.51.35-.75.54s-.47.39-.7.6c-.23.21-.44.43-.65.66-.21.23-.41.46-.6.7-.19.24-.37.49-.54.75s-.33.52-.47.79c-.15.27-.28.55-.41.83s-.24.57-.34.86-.19.58-.27.88c-.08.3-.15.6-.2.9s-.1.61-.13.91c-.03.31-.05.61-.05.92 0 .31 0 .62.02.92s.05.61.1.92c.04.3.1.61.17.91s.15.6.24.89c.09.29.2.58.31.87s.24.57.38.84.29.54.45.81c.16.26.33.52.51.77s.37.49.57.73.41.46.63.68c.22.22.44.43.68.62.23.2.48.39.73.57s.51.35.77.51c.26.16.53.31.81.44.28.14.56.26.84.38.29.11.58.22.87.31-.05.26-.09.52-.11.78a10.234 10.234 0 0 0-.06 1.56c.01.26.02.52.05.78s.06.52.1.78c.04.26.09.51.15.77.06.25.13.51.2.76.08.25.16.5.26.74.09.24.2.49.31.72.11.24.23.47.35.7.13.23.26.45.4.67.14.22.29.43.45.64s.32.41.49.61c.17.2.35.39.53.58.18.19.37.37.57.54s.4.34.6.5c.21.16.42.31.64.46s.44.28.67.41c.23.13.46.25.69.37.24.11.47.22.72.32.24.1.49.19.74.27.25.08.5.15.75.22.25.06.51.12.77.16.26.05.52.08.78.11s.52.05.78.06.52.01.78 0c.26 0 .52-.02.78-.05.26-.03.52-.06.78-.1s.51-.09.77-.15.51-.13.76-.21c.25-.08.5-.16.74-.26.24-.09.48-.2.72-.31.76.45 1.57.81 2.42 1.07.85.26 1.71.42 2.6.48v21.35h-4.67c-.11 0-.22.01-.34.03-.11.02-.22.05-.32.1-.1.04-.2.1-.3.16-.09.06-.18.13-.26.21s-.15.17-.21.26-.12.19-.16.3c-.04.1-.08.21-.1.32s-.03.22-.03.34.01.22.03.33.05.22.1.32c.04.1.1.2.16.3.06.09.13.18.21.26.08.08.17.15.26.21s.19.12.3.16c.1.04.21.08.32.1.11.02.22.03.34.03h68.74c.11 0 .22-.01.34-.03.11-.02.22-.05.32-.1.1-.04.2-.1.3-.16.09-.06.18-.13.26-.21.08-.08.15-.17.21-.26s.12-.19.16-.3c.04-.1.08-.21.1-.32s.03-.22.03-.33-.01-.22-.03-.34-.05-.22-.1-.32c-.04-.1-.1-.2-.16-.3-.06-.09-.13-.18-.21-.26-.08-.08-.17-.15-.26-.21s-.19-.12-.3-.16c-.1-.04-.21-.08-.32-.1a1.87 1.87 0 0 0-.34-.03h-6.99V82.66c.29-.04.59-.09.88-.15s.58-.13.86-.22c.28-.08.57-.18.84-.29.28-.11.55-.22.82-.35.27-.13.53-.27.79-.42.26-.15.51-.31.75-.48.24-.17.48-.35.71-.54.23-.19.45-.39.66-.6.21-.21.42-.42.61-.65.19-.22.38-.46.56-.69.18-.24.34-.48.5-.74s.3-.51.44-.78c.13-.26.26-.53.37-.81.11-.27.22-.55.31-.84.09-.28.17-.57.24-.86.07-.29.12-.58.17-.87.02-.11.02-.22.02-.34 0-.11-.02-.22-.05-.33-.03-.11-.06-.22-.11-.32s-.1-.2-.17-.29c-.07-.09-.14-.17-.22-.25a1.35 1.35 0 0 0-.27-.2c-.1-.06-.2-.11-.3-.15s-.21-.07-.33-.08c-.11-.02-.22-.02-.34-.02-.11 0-.22.02-.33.05-.11.03-.22.06-.32.11s-.2.1-.29.17-.17.14-.25.22c-.08.08-.14.17-.2.27s-.11.2-.15.3-.07.21-.08.33c-.03.19-.07.38-.11.57-.05.19-.1.38-.16.56-.06.19-.13.37-.2.55-.07.18-.15.36-.24.53s-.18.34-.28.51c-.1.17-.21.33-.32.49-.11.16-.23.31-.36.46-.12.15-.25.3-.39.44s-.28.27-.42.4c-.15.13-.3.25-.45.37-.16.12-.31.23-.48.33-.16.11-.33.21-.5.3s-.35.18-.52.26-.36.15-.54.22c-.18.07-.37.13-.56.18-.19.05-.38.1-.57.13v-6.08l6.31-5.68c.08-.08.16-.16.23-.25s.13-.19.17-.29c.05-.1.09-.21.12-.32.03-.11.04-.22.05-.33 0-.11 0-.22-.01-.34s-.04-.22-.08-.33-.09-.21-.14-.31c-.06-.1-.12-.19-.2-.27s-.16-.16-.25-.23-.19-.13-.29-.17c-.1-.05-.21-.09-.32-.11s-.22-.04-.33-.05c-.11 0-.22 0-.34.02-.11.02-.22.04-.33.08-.11.04-.21.09-.3.14-.1.06-.19.12-.27.2l-4.02 3.61v-8.32c0-.11-.01-.22-.03-.33s-.05-.22-.1-.32c-.04-.1-.1-.2-.16-.3-.06-.09-.13-.18-.21-.26-.08-.08-.17-.15-.26-.21s-.19-.12-.3-.16c-.1-.04-.21-.08-.32-.1a1.841 1.841 0 0 0-.67 0c-.11.02-.22.05-.32.1-.1.04-.2.1-.3.16-.09.06-.18.13-.26.21-.08.08-.15.17-.21.26s-.12.19-.16.3c-.04.1-.08.21-.1.32s-.03.22-.03.33V79c-.14-.04-.28-.08-.42-.13-.14-.05-.27-.1-.41-.15-.13-.05-.27-.11-.4-.17s-.26-.13-.39-.2-.25-.14-.38-.22l-.36-.24c-.12-.08-.24-.17-.35-.26-.11-.09-.22-.18-.33-.28-.11-.1-.21-.2-.32-.3a9.377 9.377 0 0 1-.58-.65c-.09-.11-.18-.23-.26-.35l-.24-.36c-.08-.12-.15-.25-.22-.38s-.14-.26-.2-.39-.12-.26-.18-.4-.11-.27-.15-.41c-.05-.14-.09-.28-.13-.42s-.07-.28-.11-.42c-.03-.14-.06-.28-.08-.43l-.06-.43c-.01-.14-.03-.29-.03-.43v-.44c0-.15 0-.29.02-.44 0-.15.02-.29.04-.43s.04-.29.07-.43.06-.28.09-.43c.03-.14.07-.28.12-.42s.09-.28.14-.41.1-.27.16-.4.12-.26.19-.39.13-.26.21-.38c.06-.1.1-.2.14-.31.04-.11.06-.22.08-.33.01-.11.02-.22.01-.34s-.02-.22-.05-.33a1.748 1.748 0 0 0-.53-.86c-.08-.08-.18-.14-.27-.2-.36-.21-.71-.44-1.05-.69-.34-.25-.66-.51-.98-.79-.31-.28-.61-.58-.89-.89s-.55-.64-.79-.98c-.25-.34-.48-.69-.69-1.05s-.4-.74-.58-1.12c-.17-.38-.32-.77-.46-1.17-.13-.4-.24-.8-.33-1.21 1.51-.5 2.95-1.17 4.31-2 1.36-.83 2.62-1.79 3.76-2.9a1.64 1.64 0 0 0 .38-.55c.05-.1.08-.21.1-.32s.04-.22.04-.33 0-.22-.03-.34-.05-.22-.09-.32c-.04-.1-.09-.21-.15-.3-.06-.1-.13-.18-.21-.26a1.64 1.64 0 0 0-.55-.38c-.1-.05-.21-.08-.32-.1s-.22-.04-.33-.04c-.11 0-.22 0-.34.03-.11.02-.22.05-.32.09-.1.04-.21.09-.3.15-.1.06-.18.13-.26.21-.72.7-1.5 1.33-2.33 1.9s-1.7 1.06-2.61 1.48c-.91.42-1.85.76-2.82 1.03-.97.26-1.95.44-2.95.54v-7.24l8.3-7.59c.08-.08.16-.16.23-.25s.12-.19.17-.29c.05-.1.09-.21.11-.32.03-.11.04-.22.05-.33 0-.11 0-.23-.02-.34-.02-.11-.04-.22-.08-.33s-.09-.21-.15-.3a1.844 1.844 0 0 0-.45-.5c-.09-.07-.19-.12-.29-.17s-.21-.09-.32-.11-.22-.04-.33-.05c-.11 0-.22 0-.34.02-.11.02-.22.04-.33.08s-.21.09-.3.15-.19.13-.27.2l-5.98 5.47V24.68c0-.11-.01-.22-.03-.34s-.05-.22-.1-.32-.1-.2-.16-.3c-.06-.09-.13-.18-.21-.26-.08-.08-.17-.15-.26-.21s-.19-.12-.3-.16-.21-.08-.32-.1a1.841 1.841 0 0 0-.66 0c-.11.02-.22.05-.32.1s-.2.1-.3.16c-.09.06-.18.13-.26.21-.08.08-.15.17-.21.26s-.12.19-.16.3-.08.21-.1.32c-.02.11-.03.22-.03.34v9.65l-3.87-4.53c-.07-.09-.15-.16-.24-.23a1.665 1.665 0 0 0-.59-.3c-.11-.03-.22-.05-.33-.06s-.22 0-.34 0c-.11.01-.22.04-.33.07-.11.04-.21.08-.31.13-.1.06-.19.12-.28.19s-.16.15-.23.24a1.665 1.665 0 0 0-.3.59c-.03.1-.05.22-.06.33v.34c.01.11.04.22.07.33.03.11.08.21.13.31.06.1.12.19.19.28l6.48 7.59v15.52c-1.45-.13-2.86-.43-4.23-.9s-2.67-1.1-3.89-1.89c.12-.18.24-.36.35-.55.11-.19.22-.38.32-.57.1-.19.2-.39.29-.59.09-.2.18-.4.25-.6.08-.2.15-.41.22-.61s.13-.42.18-.63c.06-.21.1-.42.15-.64.04-.21.08-.43.11-.64s.06-.43.08-.65.03-.43.04-.65 0-.44 0-.65-.02-.44-.04-.65c-.02-.22-.04-.43-.07-.65-.03-.22-.07-.43-.11-.64-.04-.21-.09-.43-.15-.64l-.18-.63c-.07-.21-.14-.41-.22-.62-.08-.2-.16-.4-.25-.6-.09-.2-.18-.39-.29-.59-.1-.19-.21-.38-.32-.57-.11-.19-.23-.37-.35-.55s-.25-.36-.38-.53c-.13-.17-.27-.34-.41-.51s-.29-.33-.44-.48c-.15-.16-.31-.31-.47-.46s-.32-.29-.49-.43-.34-.27-.52-.4-.35-.25-.54-.37c-.18-.12-.37-.23-.56-.34s-.38-.21-.58-.31c-.19-.1-.39-.19-.59-.27-.2-.09-.4-.17-.61-.24.13-.44.24-.88.32-1.33.08-.45.13-.9.16-1.36.03-.46.02-.91 0-1.37-.03-.46-.09-.91-.17-1.36s-.19-.89-.33-1.33c-.14-.44-.3-.86-.48-1.28s-.4-.82-.63-1.21-.49-.77-.77-1.13l.39-5.65c.02-.26.04-.53.07-.79.03-.26.07-.52.11-.78.04-.26.09-.52.15-.78s.12-.52.18-.77c.07-.26.14-.51.22-.76.08-.25.16-.5.25-.75s.19-.49.29-.74.21-.48.32-.72c.11-.24.23-.47.36-.71s.25-.46.39-.69c.14-.23.28-.45.42-.67.15-.22.3-.44.45-.65s.32-.42.48-.63c.17-.21.34-.41.51-.61s.36-.39.54-.58c.18-.19.37-.37.57-.55s.39-.36.59-.53c.2-.17.41-.34.62-.5s.42-.32.64-.47c.22-.15.44-.3.66-.44s.45-.28.68-.41c.23-.13.46-.26.7-.38s.47-.23.71-.34a15.991 15.991 0 0 1 1.47-.58c.25-.09.5-.16.76-.24.25-.07.51-.14.77-.2s.52-.12.77-.17c.26-.05.52-.09.78-.13.26-.04.52-.07.79-.09l.79-.06c.26-.01.53-.02.79-.02s.53 0 .79.02c.26.01.53.03.79.06l.79.09c.26.04.52.08.78.13s.52.1.77.17.51.13.77.2c.25.07.51.15.76.24s.5.18.74.27c.25.1.49.2.73.31.24.11.48.22.71.34.24.12.47.24.7.38.23.13.46.27.68.41.22.14.44.29.66.44.22.15.43.31.64.47.21.16.41.33.62.5.2.17.4.35.59.53s.38.37.57.55c.18.19.36.38.54.58.18.2.35.4.51.61s.33.41.48.63c.16.21.31.43.45.65.15.22.29.44.42.67.14.23.27.46.39.69.13.23.24.47.36.71s.22.48.32.72a16.25 16.25 0 0 1 .54 1.49c.07.25.15.51.22.76.07.26.13.51.18.77.06.26.1.52.15.78.04.26.08.52.11.78s.05.53.07.79l1.16 16.81c.05.77.06 1.53.01 2.3s-.14 1.53-.28 2.28-.33 1.5-.57 2.23c-.24.73-.52 1.44-.84 2.14-.05.1-.09.21-.11.32-.03.11-.04.22-.05.33 0 .11 0 .22.02.34.02.11.04.22.08.33s.09.21.14.3a1.844 1.844 0 0 0 .45.5c.09.07.19.13.29.17.1.05.21.09.32.11.11.03.22.04.33.05.11 0 .22 0 .34-.02.11-.02.22-.04.33-.08s.21-.09.3-.14c.1-.06.19-.13.27-.2.08-.08.16-.16.23-.25s.12-.19.17-.29c.49-1.05.9-2.13 1.22-3.24a11.772 11.772 0 0 1 2.04.53c.33.12.66.25.98.4.32.15.63.31.94.48.31.18.6.36.89.57.29.2.57.42.84.64s.53.46.78.71c.25.25.49.51.72.78a12.15 12.15 0 0 1 1.71 2.67c.15.32.28.65.41.98a11.84 11.84 0 0 1 .55 2.04 12.337 12.337 0 0 1 .19 2.11c0 .11.01.22.03.34s.05.22.1.32.1.2.16.3c.06.09.13.18.21.26.08.08.17.15.26.21s.19.12.3.16c.1.04.21.08.32.1s.22.03.33.03a7.565 7.565 0 0 1 1.36.12c.23.04.45.09.67.15s.44.13.65.21.42.17.63.27c.21.1.41.21.6.32.2.12.39.24.57.38.18.13.36.28.54.43a7.138 7.138 0 0 1 1.35 1.53c.13.19.24.39.35.59.11.2.21.41.3.62.09.21.17.42.24.64a7.848 7.848 0 0 1 .36 2.01 7.71 7.71 0 0 1-.36 2.69c-.07.22-.15.43-.24.64s-.19.42-.29.62-.22.4-.35.59-.26.38-.4.56-.29.35-.45.52-.32.33-.49.48c-.17.15-.35.29-.53.43-.18.14-.37.26-.57.38a7.02 7.02 0 0 1-1.23.6c-.22.08-.43.15-.65.22a1.659 1.659 0 0 0-.83.53c-.07.08-.14.18-.19.28-.05.1-.1.2-.13.31-.04.11-.06.22-.07.33-.01.11-.01.22 0 .34 0 .11.03.22.06.33a1.659 1.659 0 0 0 .53.83c.08.07.18.14.28.19.1.05.2.1.31.13.11.03.22.06.33.07.11.01.22.01.34 0 .11 0 .22-.03.33-.06.3-.09.6-.18.89-.3s.58-.23.86-.37.56-.28.83-.44.53-.33.79-.51.5-.37.74-.58.47-.41.69-.64c.22-.22.43-.45.64-.69.2-.24.39-.49.57-.74s.35-.52.51-.79.31-.55.44-.83c.13-.28.26-.57.37-.87.11-.29.21-.59.29-.89.09-.3.16-.61.22-.92s.11-.62.14-.93c.03-.31.05-.63.06-.94 0-.31 0-.63-.02-.94a9.99 9.99 0 0 0-.1-.94c-.05-.31-.11-.62-.18-.92-.07-.31-.16-.61-.26-.91-.1-.3-.21-.59-.33-.88s-.26-.57-.41-.85c-.15-.28-.31-.55-.48-.81-.17-.26-.35-.52-.54-.77s-.39-.49-.61-.72c-.21-.23-.43-.45-.67-.67-.23-.21-.47-.41-.72-.61s-.5-.37-.77-.54a10.789 10.789 0 0 0-1.66-.89c-.29-.13-.58-.23-.88-.33s-.6-.18-.9-.26c-.3-.07-.61-.13-.92-.18Zm-30.56 4.98a15.679 15.679 0 0 0 2.18 5.14c.51.78 1.1 1.52 1.74 2.19s1.35 1.29 2.11 1.85c-.08.19-.15.38-.21.57l-.18.58-.15.59c-.04.2-.08.4-.11.6a12.53 12.53 0 0 0-.13 1.21c0 .2-.01.41-.01.61s0 .41.02.61c.01.2.03.41.05.61.02.2.05.4.09.6.03.2.08.4.12.6l.15.59c.06.2.12.39.19.58.07.19.14.38.22.57.08.19.16.37.25.56s.18.36.28.54c.1.18.2.35.31.53.11.17.22.34.34.51.12.17.24.33.37.49.13.16.26.32.39.47s.27.3.42.44.29.28.44.42c.15.14.3.27.46.4s.32.25.48.37c.16.12.33.23.5.34.17.11.35.21.52.31s.36.2.54.29.37.18.55.25c.19.08.38.16.57.22.19.07.38.13.58.19.19.06.39.11.59.16.2.05.4.09.6.13v10.16H66.88V58.64c.57-.05 1.13-.12 1.69-.21Zm-5.13 34.29H32.64V71.1c1.34-.32 2.59-.87 3.73-1.64.25.1.49.19.75.27s.51.16.76.22c.26.06.52.12.78.17s.52.08.79.11c.26.03.53.05.79.06.27 0 .53.01.79 0 .27 0 .53-.03.79-.05.26-.03.53-.06.79-.11s.52-.1.78-.16.51-.14.77-.22c.25-.08.5-.17.75-.27s.49-.21.73-.32c.24-.12.47-.24.7-.37.23-.13.46-.27.68-.42.22-.15.44-.3.65-.46.21-.16.41-.33.61-.51s.39-.36.58-.55c.18-.19.36-.39.54-.59.17-.2.34-.41.49-.62.16-.21.31-.43.45-.66.14-.22.28-.45.4-.69s.24-.47.35-.71a11.227 11.227 0 0 0 .55-1.48c.08-.25.14-.51.2-.77a10.711 10.711 0 0 0 .24-1.57c.02-.26.03-.53.04-.79 0-.27 0-.53-.02-.8-.02-.26-.04-.53-.07-.79-.03-.26-.08-.53-.13-.79s-.11-.52-.18-.77c.43-.25.84-.54 1.24-.84.77.53 1.58 1.02 2.42 1.44.84.43 1.7.8 2.59 1.11.89.31 1.79.56 2.71.76.92.19 1.85.32 2.79.39v34.08Z" data-name="Capa 1" style="fill:#b7a662"></path></svg>