<svg xmlns="http://www.w3.org/2000/svg" id="Capa_2" data-name="Capa 2" viewBox="0 0 68.77 68.77"><defs><style>      .cls-1 {        fill: #5c4c34;      }    </style></defs><g id="Capa_1-2" data-name="Capa 1"><path class="cls-1" d="M34.39,0c-.56,0-1.13.01-1.69.04s-1.12.07-1.68.12c-.56.05-1.12.12-1.67.21-.56.08-1.11.18-1.66.29s-1.1.23-1.65.37c-.55.14-1.09.29-1.63.45-.54.16-1.07.34-1.6.53-.53.19-1.05.39-1.57.61-.52.22-1.03.44-1.54.68s-1.01.5-1.51.76c-.5.26-.99.54-1.47.83s-.96.59-1.43.9c-.47.31-.93.64-1.38.97-.45.34-.89.68-1.33,1.04s-.86.73-1.28,1.1c-.42.38-.82.77-1.22,1.16s-.79.81-1.16,1.22c-.38.42-.75.84-1.1,1.28s-.7.88-1.04,1.33c-.34.45-.66.91-.97,1.38-.31.47-.61.94-.9,1.43-.29.48-.57.97-.83,1.47-.26.5-.52,1-.76,1.51-.24.51-.47,1.02-.68,1.54-.22.52-.42,1.05-.61,1.58-.19.53-.37,1.06-.53,1.6-.16.54-.31,1.08-.45,1.63s-.26,1.09-.37,1.65c-.11.55-.2,1.1-.29,1.66-.08.56-.15,1.11-.21,1.68-.05.56-.1,1.12-.12,1.68-.03.56-.04,1.12-.04,1.69s.01,1.13.04,1.69c.03.56.07,1.12.12,1.68.06.56.12,1.12.21,1.67.08.56.18,1.11.29,1.66.11.55.23,1.1.37,1.65.14.55.29,1.09.45,1.63.16.54.34,1.07.53,1.6.19.53.39,1.05.61,1.57.21.52.44,1.03.68,1.54s.49,1.01.76,1.51c.27.5.54.99.83,1.47.29.48.59.96.9,1.43.31.47.64.93.97,1.38.33.45.68.9,1.04,1.33s.72.86,1.1,1.28c.38.42.77.82,1.16,1.22.4.4.81.79,1.22,1.16.42.38.84.75,1.28,1.1s.88.7,1.33,1.04c.45.34.91.66,1.38.97.47.31.94.61,1.43.9.48.29.97.57,1.47.83.5.26,1,.52,1.51.76s1.02.47,1.54.68c.52.22,1.04.42,1.57.61.53.19,1.06.37,1.6.53.54.16,1.08.31,1.63.45.55.14,1.1.26,1.65.37.55.11,1.11.2,1.66.29.56.08,1.11.15,1.67.21.56.05,1.12.1,1.68.12.56.03,1.12.04,1.69.04s1.12-.01,1.69-.04c.56-.03,1.12-.07,1.68-.12.56-.06,1.12-.12,1.68-.21.56-.08,1.11-.18,1.66-.29.55-.11,1.1-.23,1.65-.37s1.09-.29,1.63-.45c.54-.16,1.07-.34,1.6-.53.53-.19,1.05-.39,1.58-.61.52-.21,1.03-.44,1.54-.68.51-.24,1.01-.49,1.51-.76.5-.27.99-.54,1.47-.83.48-.29.96-.59,1.43-.9.47-.31.93-.64,1.38-.97.45-.33.9-.68,1.33-1.04s.86-.72,1.28-1.1c.42-.38.83-.77,1.22-1.16s.79-.81,1.16-1.22c.38-.42.75-.84,1.1-1.28s.7-.88,1.04-1.33c.33-.45.66-.91.97-1.38.31-.47.61-.94.9-1.43s.57-.97.83-1.47.52-1,.76-1.51.47-1.02.68-1.54c.21-.52.42-1.04.61-1.57.19-.53.36-1.06.53-1.6.16-.54.31-1.08.45-1.63.14-.55.26-1.1.37-1.65s.21-1.11.29-1.66c.08-.56.15-1.11.21-1.67.06-.56.1-1.12.12-1.68s.04-1.12.04-1.69-.01-1.12-.04-1.69c-.03-.56-.07-1.12-.12-1.68-.06-.56-.12-1.12-.21-1.68-.08-.56-.18-1.11-.29-1.66-.11-.55-.23-1.1-.37-1.65s-.29-1.09-.45-1.63c-.16-.54-.34-1.07-.53-1.6-.19-.53-.39-1.05-.61-1.57-.21-.52-.44-1.03-.68-1.54s-.49-1.01-.76-1.51c-.26-.5-.54-.99-.83-1.47-.29-.48-.59-.96-.9-1.43s-.64-.93-.97-1.38c-.33-.45-.68-.9-1.04-1.33s-.72-.86-1.1-1.28c-.38-.42-.77-.82-1.16-1.22-.4-.4-.8-.79-1.22-1.16-.42-.38-.84-.75-1.28-1.1s-.88-.7-1.33-1.04c-.45-.33-.91-.66-1.38-.97s-.94-.61-1.43-.9c-.48-.29-.97-.57-1.47-.83-.5-.27-1-.52-1.51-.76s-1.02-.47-1.54-.68c-.52-.22-1.04-.42-1.57-.61-.53-.19-1.06-.37-1.6-.53-.54-.16-1.08-.31-1.63-.45-.55-.14-1.09-.26-1.65-.37-.55-.11-1.11-.21-1.66-.29-.56-.08-1.12-.15-1.68-.21-.56-.05-1.12-.1-1.68-.12-.56-.03-1.12-.04-1.69-.04ZM56.86,28.65l-5.23,20.16c-.08.29-.2.56-.37.82-.17.25-.37.47-.61.66-.24.18-.5.32-.79.42-.29.1-.58.15-.88.15h-29.19c-.3,0-.6-.05-.88-.15-.29-.1-.55-.24-.79-.42s-.44-.4-.61-.65c-.17-.25-.29-.53-.36-.82l-5.24-20.16c-.06-.24-.09-.49-.09-.74,0-.25.04-.5.11-.74s.18-.47.31-.68.3-.4.48-.57c.19-.17.39-.31.62-.42s.46-.19.71-.23c.25-.05.5-.06.75-.03.25.02.49.08.73.17l8.68,3.34c.09.04.18.04.27.02s.17-.07.23-.15l7.51-9.64c.13-.16.27-.31.43-.44s.33-.24.52-.33c.19-.09.38-.16.58-.21.2-.05.41-.07.62-.07s.41.02.61.07c.2.05.4.12.58.21.19.09.36.2.52.33.16.13.3.28.43.44l7.52,9.64c.06.08.14.13.23.15.09.02.18.02.27-.02l8.68-3.34c.23-.09.48-.14.73-.16.25-.02.5,0,.74.04.24.05.48.13.7.24.22.11.43.25.61.42s.34.35.48.57.24.43.31.67c.07.24.11.48.12.73,0,.25-.02.5-.08.74Z"></path></g></svg>