<svg xmlns="http://www.w3.org/2000/svg" id="Capa_2" data-name="Capa 2" viewBox="0 0 103.25 103.69"><defs><style>      .cls-1 {        fill: #b7a662;      }    </style></defs><g id="Capa_1-2" data-name="Capa 1"><g><path class="cls-1" d="M51.62,41.48c-.45,0-.91.04-1.35.13-.44.09-.88.22-1.3.39-.42.17-.82.39-1.2.64-.38.25-.73.54-1.05.86s-.61.67-.86,1.05-.47.78-.64,1.2c-.17.42-.31.85-.39,1.3-.09.45-.13.9-.13,1.35s.04.9.13,1.35c.09.45.22.88.39,1.3.17.42.39.82.64,1.2.25.38.54.73.86,1.05.32.32.67.61,1.05.86.38.25.78.47,1.2.64.42.17.86.3,1.3.39.45.09.9.13,1.35.13s.91-.04,1.35-.13c.45-.09.88-.22,1.3-.39.42-.17.82-.39,1.2-.64.38-.25.73-.54,1.05-.86.32-.32.61-.67.86-1.05.25-.38.47-.78.64-1.2.17-.42.3-.85.39-1.3.09-.44.13-.89.13-1.35s-.04-.9-.13-1.35c-.09-.44-.22-.88-.39-1.3s-.39-.82-.64-1.19c-.25-.38-.54-.73-.86-1.05s-.67-.61-1.05-.86-.78-.47-1.2-.64c-.42-.17-.85-.3-1.3-.39s-.9-.13-1.35-.13ZM51.62,51.84c-.23,0-.45-.02-.68-.07-.22-.04-.44-.11-.65-.2-.21-.09-.41-.19-.6-.32-.19-.13-.36-.27-.52-.43s-.3-.34-.43-.52c-.13-.19-.23-.39-.32-.6-.09-.21-.15-.43-.2-.65-.04-.22-.07-.45-.07-.67s.02-.45.07-.67c.04-.22.11-.44.2-.65s.19-.41.32-.6c.13-.19.27-.36.43-.52s.34-.3.52-.43.39-.23.6-.32.43-.15.65-.2c.22-.04.45-.07.68-.07s.45.02.68.07c.22.04.44.11.65.2s.41.19.6.32.36.27.52.43.3.34.43.52c.13.19.23.39.32.6.09.21.15.43.2.65.04.22.07.45.07.67s-.02.45-.07.67c-.04.22-.11.44-.2.65s-.19.41-.32.6c-.13.19-.27.36-.43.52s-.34.3-.52.43-.39.23-.6.32-.43.15-.65.2c-.22.04-.45.07-.68.07Z"></path><path class="cls-1" d="M101.05,68.51c-5.36-3.66-21.27-14.86-21.27-14.86.49.09.99.11,1.48.06s.98-.17,1.44-.35.89-.43,1.28-.74c.39-.31.73-.67,1.02-1.07,1.63-2.27,1.05-5.68-1.28-7.23l-26.91-18.79v-5.65h1.73c.34,0,.68-.03,1.01-.1.33-.07.66-.17.97-.3.32-.13.61-.29.9-.48s.55-.4.79-.65.46-.5.65-.79c.19-.28.35-.58.48-.9.13-.31.23-.64.3-.97.07-.33.1-.67.1-1.01s-.03-.68-.1-1.01c-.07-.33-.16-.66-.3-.97-.13-.31-.29-.61-.48-.9-.19-.28-.4-.54-.65-.78s-.51-.46-.79-.65-.58-.35-.9-.48c-.31-.13-.64-.23-.97-.3-.34-.07-.67-.1-1.01-.1h-1.73v-4.32c0-.34-.03-.68-.1-1.01s-.17-.66-.3-.97c-.13-.31-.29-.61-.48-.9-.19-.28-.4-.54-.65-.78s-.5-.46-.79-.65-.58-.35-.9-.48c-.32-.13-.64-.23-.98-.29-.33-.07-.67-.1-1.01-.1s-.68.03-1.01.1c-.33.07-.66.16-.97.29-.32.13-.61.29-.9.48s-.55.4-.79.65c-.24.24-.46.5-.65.78s-.35.58-.48.9-.23.64-.3.97-.1.67-.1,1.01v4.32h-1.73c-.34,0-.68.03-1.01.1-.34.07-.66.16-.98.3-.31.13-.61.29-.9.48s-.55.4-.79.65-.46.5-.65.78c-.19.28-.35.58-.48.9s-.23.64-.3.97-.1.67-.1,1.01.03.68.1,1.01.17.66.3.97.29.61.48.9c.19.28.41.55.65.79s.5.46.79.65.58.35.9.48c.32.13.64.23.98.3.33.07.67.1,1.01.1h1.73v5.65l-26.91,18.79c-2.32,1.55-2.9,4.96-1.27,7.23.29.41.63.76,1.02,1.07.39.31.82.56,1.28.74.46.19.94.3,1.44.35s.99.03,1.48-.06c0,0-15.92,11.19-21.28,14.86-2.31,1.58-2.9,4.96-1.27,7.23.2.28.43.55.68.78.25.24.53.45.82.63.3.18.61.34.93.46.33.12.66.21,1.01.26s.69.07,1.04.06.69-.06,1.03-.15c.34-.08.67-.2.98-.35s.61-.33.89-.54v25.06c0,.23.04.45.13.66.09.21.21.4.38.56.16.16.35.29.56.38s.43.13.66.13h83.15c.23,0,.45-.04.66-.13.21-.09.4-.21.56-.38.16-.16.29-.35.38-.56.09-.21.13-.43.13-.66v-25.06c.28.21.58.39.89.54.32.15.64.26.98.35.34.09.68.13,1.03.15.35.01.69,0,1.04-.06.35-.05.68-.14,1.01-.26.33-.12.64-.27.94-.46.3-.18.57-.39.82-.63s.48-.5.68-.78c1.63-2.27,1.03-5.65-1.28-7.23ZM44.7,16.42c-.23,0-.45-.04-.66-.13-.21-.09-.4-.21-.56-.37-.16-.16-.29-.35-.38-.56-.09-.21-.13-.43-.13-.66s.04-.45.13-.66c.09-.21.22-.4.38-.56.16-.16.35-.29.56-.38.21-.09.43-.13.66-.13h3.46c.23,0,.45-.04.66-.13s.4-.21.56-.37c.16-.16.29-.35.38-.56.09-.21.13-.43.13-.66v-6.05c0-.23.04-.45.13-.66s.21-.4.38-.56c.16-.16.35-.29.56-.38s.43-.13.66-.13.45.04.66.13.4.21.56.38c.16.16.29.35.38.56.09.21.13.43.13.66v6.05c0,.23.04.45.13.66.09.21.21.4.38.56.16.16.35.29.56.37.21.09.43.13.66.13h3.47c.23,0,.45.04.66.13.21.09.4.21.56.38s.29.35.38.56c.09.21.13.43.13.66s-.04.45-.13.66c-.09.21-.21.4-.38.56-.16.16-.35.29-.56.37-.21.09-.43.13-.66.13h-3.47c-.23,0-.45.04-.66.13-.21.09-.4.21-.56.37-.16.16-.29.35-.38.56-.09.21-.13.43-.13.66v5.2c-1.15-.4-2.31-.4-3.47,0v-5.2c0-.23-.04-.45-.13-.66-.09-.21-.22-.4-.38-.56-.16-.16-.35-.29-.56-.37s-.43-.13-.66-.13h-3.46ZM21.08,49.56c-.13-.19-.22-.4-.27-.62-.05-.22-.05-.45-.01-.68.04-.22.12-.43.24-.63s.28-.36.47-.49c0,0,21.84-15.26,29.12-20.33.3-.21.63-.31.99-.31s.69.1.99.31c7.28,5.08,29.13,20.33,29.13,20.33.19.13.35.3.47.49s.21.4.25.63.04.45-.01.68c-.05.23-.14.43-.27.62-.13.19-.3.35-.49.47-.19.12-.41.2-.63.24-.23.04-.46.03-.68-.02-.23-.05-.43-.14-.62-.28,0,0-18.86-13.18-25.14-17.57-.44-.3-.91-.54-1.42-.7-.51-.16-1.03-.24-1.56-.24s-1.05.08-1.56.24c-.51.16-.98.39-1.42.7-6.28,4.39-25.14,17.57-25.14,17.57-.19.13-.4.22-.62.27-.22.05-.45.05-.68.01-.22-.04-.43-.12-.63-.24-.19-.12-.36-.28-.49-.46ZM25.64,100.23h-4.33v-14.85c0-1.64,2.08-4.22,4.33-6.4v21.25ZM25.64,74.34c-2.24,1.81-7.8,6.75-7.8,11.04v14.85h-6.06v-25.75l13.86-9.69v9.54ZM25.64,60.57s-14.59,10.22-19.46,13.6c-1.87,1.3-3.85-1.54-1.99-2.84,5.35-3.76,21.46-14.98,21.46-14.98v4.22ZM60.29,100.23h-17.32v-21.8c0-3.42,4.93-8.92,8.66-12.21,3.73,3.29,8.66,8.8,8.66,12.21v21.8ZM74.14,100.23h-10.39v-21.8c0-6.63-9.9-14.9-11.03-15.82-.15-.13-.33-.22-.51-.29-.19-.07-.38-.1-.58-.1s-.39.03-.58.1c-.19.07-.36.17-.52.29-1.13.92-11.03,9.19-11.03,15.82v21.8h-10.4v-49.94l21.53-15.04c.3-.21.63-.31.99-.31s.69.1.99.31l21.53,15.04v49.94ZM81.94,100.23h-4.33v-21.25c2.26,2.18,4.33,4.77,4.33,6.4v14.85ZM91.47,100.23h-6.06v-14.85c0-4.29-5.56-9.23-7.8-11.04v-9.54l13.86,9.69v25.75ZM97.07,74.18c-4.88-3.38-19.46-13.6-19.46-13.6v-4.22s16.1,11.22,21.46,14.98c1.86,1.3-.13,4.13-1.99,2.84Z"></path></g></g></svg>