<svg xmlns="http://www.w3.org/2000/svg" id="Capa_2" data-name="Capa 2" viewBox="0 0 76.87 56.21"><defs><style>      .cls-1 {        fill: #5c4c34;        fill-rule: evenodd;      }    </style></defs><g id="Capa_1-2" data-name="Capa 1"><path class="cls-1" d="M51.66,30.21h-26.47c-1.12,0-1.38,1.3-.86,2.56,1.09,2.66,3.98,5.18,6.73,4.45h14.72c2.85,0,5.64-1.79,6.73-4.45.52-1.26.25-2.4-.86-2.56ZM8.27,30.11c-.48,1.47-1.03,4.39,1.58,5.35,2.14.78,6.66,1.35,9.06,1.72,2.32.35,2.89-1.02,2.09-3.06-1.5-3.78-4.89-4.59-8.06-5.13-3.17-.55-4.31.03-4.67,1.13ZM63.92,28.97c-3.17.55-6.56,1.35-8.06,5.13-.81,2.04-.23,3.41,2.08,3.06,2.41-.37,6.92-.93,9.06-1.72,2.61-.96,2.06-3.87,1.58-5.35-.36-1.1-1.49-1.68-4.67-1.13ZM38.43,3.47c-4.96,0-10.33.18-14.87.49-1.72.12-3.3,1.05-4.36,2.77-2.27,3.69-4.3,7.17-5.57,11.03,0,0,14.23,1.42,24.8,1.42s24.8-1.42,24.8-1.42c-1.28-3.86-3.3-7.34-5.57-11.03-1.06-1.72-2.64-2.65-4.36-2.77-4.53-.31-9.9-.48-14.86-.49ZM38.43,0C44.19,0,50.08-.03,55.71.76c2.61.37,4.29,1.9,5.5,3.68,2.75,4.06,4.52,8.34,6.07,12.67h6.9c1.93,0,3.07,1.5,2.57,3.36-.55,2.06-1.17,3.07-4.19,3.77l-1.15.27c.89,1.72,1.56,3.54,1.56,5.16v13.31c0,2.22-1.54,4.11-3.33,4.81v6.23c0,1.22-.98,2.19-2.19,2.19h-6.21c-1.21,0-2.19-.98-2.19-2.19v-5.93H17.82v5.93c0,1.22-.98,2.19-2.19,2.19h-6.21c-1.21,0-2.19-.98-2.19-2.19v-6.23c-1.79-.7-3.33-2.58-3.33-4.81v-13.31c0-1.62.66-3.44,1.56-5.16l-1.15-.27c-3.01-.7-3.63-1.71-4.18-3.77-.49-1.86.66-3.36,2.57-3.36h6.91c1.55-4.33,3.31-8.62,6.06-12.67,1.21-1.78,2.89-3.32,5.5-3.68C26.79-.03,32.67,0,38.43,0Z"></path></g></svg>